<?xml version="1.0" standalone="no"?>
<!DOCTYPE svg PUBLIC "-//W3C//DTD SVG 20010904//EN"
 "http://www.w3.org/TR/2001/REC-SVG-20010904/DTD/svg10.dtd">
<svg version="1.0" xmlns="http://www.w3.org/2000/svg"
 width="700.000000pt" height="700.000000pt" viewBox="0 0 700.000000 700.000000"
 preserveAspectRatio="xMidYMid meet">
<metadata>
Created by potrace 1.14, written by Peter Selinger 2001-2017
</metadata>
<g transform="translate(0.000000,700.000000) scale(0.100000,-0.100000)"
fill="#000000" stroke="none">
<path d="M3006 6992 c-52 -11 -121 -73 -155 -140 -18 -35 -16 -131 3 -177 10
-23 54 -76 110 -130 93 -91 152 -168 199 -261 l26 -51 -67 -7 c-37 -4 -90 -9
-118 -12 -32 -4 -84 1 -145 14 -52 11 -114 23 -139 26 -25 3 -72 8 -105 12
-69 8 -329 12 -363 6 -22 -4 -20 -6 15 -26 78 -45 203 -128 203 -136 0 -4 -15
-11 -33 -14 -52 -10 -303 -94 -364 -121 -17 -8 -34 -15 -38 -15 -26 0 -349
-164 -478 -243 -416 -255 -763 -606 -986 -997 -44 -77 -159 -314 -165 -340 -1
-3 -14 -36 -28 -75 -35 -91 -83 -254 -103 -352 -22 -102 -21 -101 -30 -153 -4
-25 -9 -52 -10 -60 -1 -8 -6 -46 -10 -85 -4 -38 -9 -83 -11 -100 -7 -50 -7
-457 0 -510 3 -27 8 -77 11 -110 3 -33 8 -71 11 -85 2 -14 7 -43 9 -64 9 -67
45 -237 71 -334 125 -464 347 -893 653 -1262 126 -151 328 -351 449 -444 15
-11 29 -23 32 -27 3 -3 55 -42 115 -86 498 -359 1035 -561 1645 -620 159 -15
670 -7 769 12 11 2 46 6 78 10 248 25 771 158 923 235 19 10 37 18 40 18 25 2
229 99 351 167 186 104 417 268 535 379 157 148 266 265 345 372 24 32 46 61
49 64 23 21 230 369 230 386 0 2 16 38 36 81 49 106 49 108 79 193 33 93 90
299 101 360 4 25 8 47 9 50 2 10 25 145 30 180 30 209 28 637 -5 855 -5 33
-11 76 -14 95 -54 359 -194 764 -377 1095 -403 725 -1051 1265 -1824 1520 -88
29 -175 56 -192 60 l-33 7 38 71 c21 40 46 92 57 117 11 25 24 49 30 53 12 10
-67 2 -167 -17 -102 -20 -218 -60 -310 -107 -75 -40 -78 -40 -155 -34 -104 8
-145 13 -147 17 -1 2 -8 21 -15 43 -20 60 -95 218 -138 288 -76 127 -186 257
-290 344 -72 61 -152 82 -237 65z"/>
</g>
</svg>
